<?xml version="1.0" standalone="no"?>
<!DOCTYPE svg PUBLIC "-//W3C//DTD SVG 20010904//EN"
 "http://www.w3.org/TR/2001/REC-SVG-20010904/DTD/svg10.dtd">
<svg version="1.0" xmlns="http://www.w3.org/2000/svg"
 width="600.000000pt" height="600.000000pt" viewBox="0 0 600.000000 600.000000"
 preserveAspectRatio="xMidYMid meet">
<metadata>
Created by potrace 1.11, written by Peter Selinger 2001-2013
</metadata>
<g transform="translate(0.000000,600.000000) scale(0.100000,-0.100000)"
fill="#000000" stroke="none">
<path d="M4045 5769 c-27 -4 -68 -10 -90 -14 -66 -10 -240 -64 -310 -95 -152
-68 -303 -173 -441 -307 -224 -215 -361 -462 -426 -766 -32 -154 -31 -486 2
-617 5 -19 11 -46 13 -60 20 -107 107 -307 192 -435 65 -98 89 -128 190 -233
303 -317 675 -468 1119 -457 119 3 137 5 246 26 319 61 648 259 864 518 119
143 213 313 269 486 93 291 92 415 -7 439 -45 12 -87 -7 -336 -152 -153 -89
-240 -141 -538 -324 -77 -48 -117 -67 -125 -60 -7 5 -47 28 -90 51 -108 58
-309 169 -327 181 -8 5 -28 16 -45 24 -16 8 -61 33 -100 55 l-70 39 0 375 0
376 165 94 c91 52 221 128 290 167 69 40 139 80 155 89 17 9 32 19 33 24 2 4
7 7 11 7 13 0 325 182 348 203 47 42 39 125 -15 164 -73 52 -215 119 -307 143
-125 34 -160 42 -240 54 -95 15 -345 18 -430 5z"/>
<path d="M1495 2491 c-836 -837 -1167 -1174 -1191 -1213 -41 -71 -58 -146 -51
-234 11 -158 25 -178 300 -456 182 -184 244 -240 287 -261 134 -65 301 -57
423 20 23 14 563 548 1200 1185 1120 1119 1157 1158 1132 1168 -155 59 -375
200 -504 324 -176 167 -276 301 -377 503 l-60 122 -1159 -1158z m-144 -1023
c125 -65 149 -237 47 -335 -88 -85 -214 -84 -302 3 -39 39 -58 89 -58 150 -1
159 169 258 313 182z"/>
</g>
</svg>
